PathFileType	4	(X/Y/Z)	64_2_18_p1_0-568_filt_butterworth.trc
DataRate	CameraRate	NumFrames	NumMarkers	Units	OrigDataRate	OrigDataStartFrame	OrigNumFrames
53.0	53.0	5	27	m	53.0	213	568
Frame#	Time	RHip			RKnee			RAnkle			RBigToe			RSmallToe			RHeel			LHip			LKnee			LAnkle			LBigToe			LSmallToe			LHeel			Neck			Head			Nose			RShoulder			RElbow			RWrist			RThumb			RIndex			RPinky			LShoulder			LElbow			LWrist			LThumb			LIndex			LPinky			
		X1	Y1	Z1	X2	Y2	Z2	X3	Y3	Z3	X4	Y4	Z4	X5	Y5	Z5	X6	Y6	Z6	X7	Y7	Z7	X8	Y8	Z8	X9	Y9	Z9	X10	Y10	Z10	X11	Y11	Z11	X12	Y12	Z12	X13	Y13	Z13	X14	Y14	Z14	X15	Y15	Z15	X16	Y16	Z16	X17	Y17	Z17	X18	Y18	Z18	X19	Y19	Z19	X20	Y20	Z20	X21	Y21	Z21	X22	Y22	Z22	X23	Y23	Z23	X24	Y24	Z24	X25	Y25	Z25	X26	Y26	Z26	X27	Y27	Z27	
213	4.018867924528302	0.32917492252471936	0.3500370415269972	0.9974181751844842	0.29496572396293913	-0.12009578228119067	1.0092567719356518	0.24953061840711951	-0.5632810502220968	1.0732293243083961	0.28626907714819416	-0.5844179771710962	0.8685561743409774	0.3386493032720268	-0.5907972247035043	0.9279242269869918	0.19403426895462925	-0.6616346192699588	1.1743028301446081	0.10732587082257976	0.35588792627828947	1.0056535312514536	0.07969261548739404	-0.10631280109800628	0.9929293361761528	0.07799097082858611	-0.5500500509570466	1.0529380854137889	0.13686986902464182	-0.5562949365052431	0.8209082799035496	0.058632442214579805	-0.5783352257289109	0.8886792100264391	0.07799234607332886	-0.6113754884294755	1.1343608148837556	0.30579935044198003	0.9398300220856716	0.9481314849166116	0.37994883596335316	1.1858379388504767	0.8367666868207819	0.3642162366327254	1.0444301516992263	0.7619875565076717	0.46259718131492833	0.8892883917653941	0.9119654737049563	0.454430882746229	0.8572041070932241	0.7176896925098275	0.4075098549210427	0.8912950822243306	0.3617137580475924	0.3617998171469812	0.8795081404764246	0.23291506558473396	0.3662100391764829	0.8984039426971053	0.19005728334843866	0.3881564265813396	0.8710492701751197	0.22043576470166798	0.14035481048332027	0.8959452522793062	1.0423541463128592	0.02665974219901377	0.6739468985514019	1.1093793076907787	-0.09961610047074726	0.420460930311128	1.118067778517615	-0.10682690939786528	0.3216618015998242	1.0379335913785477	-0.18586473768608552	0.28809402385845445	1.089566104448057	-0.16175408605203162	0.28247851136371477	1.1145980559196942	
214	4.037735849056604	0.3282029854322002	0.34944122049632326	0.9994571669663413	0.29415317801575475	-0.11759844860069857	1.0050422895063902	0.2489790618935617	-0.563637029565455	1.0732020515779632	0.28621257380070536	-0.5844839863197316	0.8685938850655248	0.3386034116083163	-0.5908295901188239	0.9280155966182748	0.19343602123123899	-0.6620065310069997	1.1745156492601778	0.1068874220827685	0.35618453250357923	1.0050508256043282	0.07939628608218391	-0.10616225551185554	0.9927481722789955	0.07771185430489597	-0.550335210440281	1.052886004066458	0.1367317409631033	-0.5563693663163266	0.8210624462242067	0.05862576438321207	-0.5783941543288997	0.8887103403947398	0.07796894321939542	-0.6120433826138801	1.1343638270933254	0.3042557052769656	0.9398445736708243	0.9469115360199947	0.3768999975350632	1.1859077632410877	0.8351771623281222	0.36224320322643444	1.044524392899787	0.7617409019112874	0.46121394479692235	0.8890124537335523	0.9140701861624889	0.4562085065950525	0.8506346871630487	0.7241811412623206	0.408219356087714	0.8899849763444816	0.36852198113848783	0.3604919923581062	0.8810997437717584	0.2342329783989053	0.3664262728047174	0.8987701162705624	0.1941834951513526	0.38884064851235384	0.8714273152426637	0.2220163047109773	0.13977925987917317	0.8964438737395969	1.0428404138849272	0.026469025555347626	0.6745373990927724	1.1099665012691209	-0.09930050795290105	0.4180677206226639	1.1251083111789606	-0.10553558037218937	0.31871323832167475	1.0435106864161543	-0.18601595660737688	0.2871817235157849	1.0924357260015245	-0.16057993800381612	0.28211234618704234	1.1151864512760845	
215	4.056603773584905	0.3274566625006007	0.3488782771966409	1.0013560871963414	0.2936581125814907	-0.11546445734659572	1.0011111243299344	0.24830430537100684	-0.5641403183132478	1.0727845382603314	0.2861407201134368	-0.5846728216055291	0.8688665332068698	0.3385368924161408	-0.5908858109405877	0.928150682736487	0.19278204582024905	-0.6622849969907592	1.174343058008626	0.10643527966089202	0.3563990064119684	1.0044204821208464	0.07911644656590008	-0.10598364015443518	0.9925734689906547	0.0775654877078458	-0.5504644169762684	1.0528866282007021	0.1359385575724384	-0.5570710514403189	0.8220439139203294	0.05855856881727069	-0.5785471396328139	0.8887631910631768	0.07796530083292291	-0.612626874753567	1.1342290114621638	0.30309702839912733	0.9404900703678322	0.9460786808800329	0.37390623557614105	1.185721771638169	0.8334176942685614	0.3606038994820091	1.044718459697534	0.7611721780684646	0.4601108086009045	0.8887972234854894	0.9157156364039659	0.45946219444970937	0.8437042430634726	0.72697437196966	0.41014857291007323	0.8889616874216739	0.37323645614069045	0.36081951243435295	0.8831807817712495	0.2336156976577815	0.3672492640294424	0.8998684723398764	0.1973930032495008	0.3892380644355393	0.8725469826830239	0.22364907717487462	0.1390945129395067	0.8962616711233051	1.0468005672350194	0.02630480299333608	0.6753728264126493	1.1109385528377183	-0.09835832675070691	0.41604302417501676	1.130351288582854	-0.10431398697957656	0.31583043567248587	1.0492398910653788	-0.18564846367119442	0.28649729700891235	1.0946826653371617	-0.15918283840963254	0.28222791966416344	1.116795630746527	
216	4.075471698113208	0.3269240952060306	0.34850889396036266	1.0027761089696932	0.2934872943136981	-0.11407462337196911	0.9979297750738603	0.24748494145110864	-0.5647055626366569	1.071992240072767	0.2860475809492205	-0.5850150346420936	0.8694438177647547	0.33843218751391657	-0.5910268698348583	0.9284239847054742	0.19216690551414725	-0.662393187012443	1.1737423454098375	0.10594307846758765	0.35659815983369575	1.0039410734181502	0.07885711071390372	-0.1058493770573326	0.9923993278267962	0.07757933866232257	-0.5504180021021035	1.0528566536036317	0.1345381443615144	-0.5583568455262313	0.8237931808305352	0.0584413877485307	-0.5787731393422799	0.8888243289634498	0.07799488333916876	-0.6130608041096225	1.133855367025455	0.30214406183636466	0.9416095515368604	0.9457157487877061	0.37138208772619374	1.1852966338345758	0.8316969446459419	0.35946213759816725	1.0449486888346524	0.7604810259024466	0.45950192473132023	0.8886690376621768	0.916643628456628	0.4643798366844003	0.8369197809608288	0.7253963812172182	0.4134130821380546	0.8883075264610635	0.37507624876460777	0.3628144292411883	0.8861342664251679	0.2316122695514146	0.3688955420833475	0.9015703534394286	0.19951791115549192	0.3892785787834704	0.8738308076167377	0.2260095671706783	0.13815007262594925	0.8957742073001984	1.052502235242857	0.026144479968326945	0.6761854664082396	1.1130928896429828	-0.09700260553120504	0.4142498757047242	1.1336699797304273	-0.10329140613311551	0.31320522528577577	1.054832778285634	-0.18446573477804173	0.2859510074259424	1.096391331236691	-0.15751633918971042	0.28250647974852705	1.11940099200332	
217	4.09433962264151	0.32646076183048955	0.34839502503442316	1.0035339438788928	0.2935408467027631	-0.11351442379834625	0.9959577316362151	0.2466056593287557	-0.5650524251430613	1.0709017650810373	0.2859691720652324	-0.5853277609117691	0.8700071870931565	0.33832223519253013	-0.5912851888857916	0.9288811810446905	0.19173913906860252	-0.6621942317233762	1.172658449426235	0.1054305023693719	0.3568156688359164	1.003730626960794	0.07862508870911035	-0.10581806505228597	0.9922097421018405	0.07771296289508678	-0.5502176084446949	1.0527345183843408	0.13275778561299081	-0.5600062513714078	0.8260345676304054	0.05829218012407156	-0.579034182763547	0.8888826568976885	0.07809180931014255	-0.6131586463380966	1.133104468507819	0.3014438608771471	0.9430297772992534	0.9456402238806629	0.3695172602896629	1.1850299644847646	0.8304467309589223	0.358687608199195	1.0454726477992158	0.760072395114611	0.45952817155234726	0.8886359965724969	0.9168239096101571	0.47044284642627765	0.8308840854722767	0.7201701227019554	0.4179897333702206	0.8880979925659641	0.3744693533929546	0.36637399936655857	0.889917546916104	0.23017097153059168	0.37130801278023673	0.9035938604046405	0.2009863658026354	0.38931865351589867	0.8742382800948497	0.23002393128324175	0.13693714020431708	0.8956759603737051	1.0573691588355791	0.02596166296341548	0.6765092545312936	1.1166541915290638	-0.09558510382849299	0.4123303512817456	1.1360933474088393	-0.10235475163980759	0.3112711039287182	1.0594579187334285	-0.18141116299737675	0.28588357783912816	1.0966074539122412	-0.1552491206679155	0.28280119012627797	1.122119882377253	
